HIERARCHY
ROOT Hips
{
	OFFSET 3.262180 1.786664 96.876900
	CHANNELS 6 Xposition Yposition Zposition Zrotation Xrotation Yrotation
	JOINT Spine
	{
		OFFSET 0.000000 2.282068 11.002602
		CHANNELS 6 Xposition Yposition Zposition Zrotation Xrotation Yrotation
		JOINT Spine1
		{
			OFFSET 0.000000 -0.000002 10.969299
			CHANNELS 6 Xposition Yposition Zposition Zrotation Xrotation Yrotation
			JOINT Spine2
			{
				OFFSET 0.000000 -0.000001 10.969299
				CHANNELS 6 Xposition Yposition Zposition Zrotation Xrotation Yrotation
				JOINT Spine3
				{
					OFFSET 0.000000 -0.000002 10.969299
					CHANNELS 6 Xposition Yposition Zposition Zrotation Xrotation Yrotation
					JOINT Neck
					{
						OFFSET 0.000000 -1.410342 14.103394
						CHANNELS 6 Xposition Yposition Zposition Zrotation Xrotation Yrotation
						JOINT Neck1
						{
							OFFSET 0.000000 -0.000001 4.782913
							CHANNELS 6 Xposition Yposition Zposition Zrotation Xrotation Yrotation
							JOINT Head
							{
								OFFSET 0.000000 -0.000001 4.782913
								CHANNELS 6 Xposition Yposition Zposition Zrotation Xrotation Yrotation
								End Site
								{
									OFFSET 0.000000 -0.000002 9.728073
								}
							}
						}
					}
					JOINT RightShoulder
					{
						OFFSET 0.000000 -5.270922 10.073898
						CHANNELS 6 Xposition Yposition Zposition Zrotation Xrotation Yrotation
						JOINT RightArm
						{
							OFFSET 0.000000 -0.000003 20.722305
							CHANNELS 6 Xposition Yposition Zposition Zrotation Xrotation Yrotation
							JOINT RightForeArm
							{
								OFFSET 0.000000 -0.000005 28.841995
								CHANNELS 6 Xposition Yposition Zposition Zrotation Xrotation Yrotation
								JOINT RightHand
								{
									OFFSET 0.000000 -0.000004 25.042404
									CHANNELS 6 Xposition Yposition Zposition Zrotation Xrotation Yrotation
									JOINT RightHandThumb1
									{
										OFFSET -3.044720 -2.696441 3.626236
										CHANNELS 6 Xposition Yposition Zposition Zrotation Xrotation Yrotation
										End Site
										{
											OFFSET 0.000000 0.000000 0.100006
										}
									}
									JOINT RightHandMiddle1
									{
										OFFSET 0.000000 0.061985 9.669983
										CHANNELS 6 Xposition Yposition Zposition Zrotation Xrotation Yrotation
										End Site
										{
											OFFSET 0.000000 0.000000 0.100006
										}
									}
								}
							}
						}
					}
					JOINT LeftShoulder
					{
						OFFSET 0.000000 -5.270922 10.073898
						CHANNELS 6 Xposition Yposition Zposition Zrotation Xrotation Yrotation
						JOINT LeftArm
						{
							OFFSET 0.000000 -0.000003 20.722305
							CHANNELS 6 Xposition Yposition Zposition Zrotation Xrotation Yrotation
							JOINT LeftForeArm
							{
								OFFSET 0.000000 -0.000005 28.841995
								CHANNELS 6 Xposition Yposition Zposition Zrotation Xrotation Yrotation
								JOINT LeftHand
								{
									OFFSET 0.000000 -0.000004 25.042404
									CHANNELS 6 Xposition Yposition Zposition Zrotation Xrotation Yrotation
									JOINT LeftHandThumb1
									{
										OFFSET 3.044720 -2.696441 3.626236
										CHANNELS 6 Xposition Yposition Zposition Zrotation Xrotation Yrotation
										End Site
										{
											OFFSET 0.000000 0.000000 0.100006
										}
									}
									JOINT LeftHandMiddle1
									{
										OFFSET 0.000000 0.061985 9.669983
										CHANNELS 6 Xposition Yposition Zposition Zrotation Xrotation Yrotation
										End Site
										{
											OFFSET 0.000000 0.000000 0.100006
										}
									}
								}
							}
						}
					}
				}
			}
		}
	}
	JOINT RightUpLeg
	{
		OFFSET -10.300800 0.000000 0.000000
		CHANNELS 6 Xposition Yposition Zposition Zrotation Xrotation Yrotation
		JOINT RightLeg
		{
			OFFSET 0.000000 0.000007 -44.955601
			CHANNELS 6 Xposition Yposition Zposition Zrotation Xrotation Yrotation
			JOINT RightFoot
			{
				OFFSET 0.000000 0.000007 -44.349701
				CHANNELS 6 Xposition Yposition Zposition Zrotation Xrotation Yrotation
				JOINT RightForeFoot
				{
					OFFSET 0.000000 0.000001 -4.355741
					CHANNELS 6 Xposition Yposition Zposition Zrotation Xrotation Yrotation
					JOINT RightToeBase
					{
						OFFSET 0.000000 -17.058399 -0.000003
						CHANNELS 6 Xposition Yposition Zposition Zrotation Xrotation Yrotation
						End Site
						{
							OFFSET 0.000000 -6.416070 -0.000001
						}
					}
				}
			}
		}
	}
	JOINT LeftUpLeg
	{
		OFFSET 10.300800 0.000000 0.000000
		CHANNELS 6 Xposition Yposition Zposition Zrotation Xrotation Yrotation
		JOINT LeftLeg
		{
			OFFSET 0.000000 0.000007 -44.955601
			CHANNELS 6 Xposition Yposition Zposition Zrotation Xrotation Yrotation
			JOINT LeftFoot
			{
				OFFSET 0.000000 0.000007 -44.349701
				CHANNELS 6 Xposition Yposition Zposition Zrotation Xrotation Yrotation
				JOINT LeftForeFoot
				{
					OFFSET 0.000000 0.000001 -4.355741
					CHANNELS 6 Xposition Yposition Zposition Zrotation Xrotation Yrotation
					JOINT LeftToeBase
					{
						OFFSET 0.000000 -17.058399 -0.000003
						CHANNELS 6 Xposition Yposition Zposition Zrotation Xrotation Yrotation
						End Site
						{
							OFFSET 0.000000 -7.802588 -0.000001
						}
					}
				}
			}
		}
	}
}
MOTION
Frames: 6
Frame Time: 0.041667
3.634380 2.105473 96.960297 3.011277 -11.703972 -2.723409 0.000000 2.282068 11.002603 0.041821 6.214645 2.437385 0.000000 -0.000003 10.969290 0.212862 4.999075 -0.024551 0.000000 -0.000001 10.969298 5.563294 5.092223 1.476379 0.000000 -0.000004 10.969289 1.518841 2.983086 2.300592 -0.000001 -1.410349 14.103390 -3.467690 2.197104 -9.478524 0.000001 -0.000004 4.782915 -8.250441 0.534457 2.445279 0.000001 0.000003 4.782894 -0.434915 -11.693184 1.395898 -0.000007 -5.270928 10.073884 -25.035555 0.000016 -78.696019 -0.000015 -0.000005 20.722305 85.500001 -0.000008 -0.000008 0.000002 -0.000043 28.841993 -27.711708 26.835583 13.339864 0.000016 -0.000006 25.042418 -3.712884 -10.112286 -20.284120 -3.044736 -2.696419 3.626227 -0.000001 45.263705 0.000002 -0.000018 0.061998 9.669983 -0.000003 0.000001 0.000002 0.000013 -5.270927 10.073886 15.312593 -0.000002 95.959991 0.000012 -0.000003 20.722309 17.033297 29.140667 62.223297 -0.000001 -0.000000 28.842028 18.638693 33.658448 -10.588630 0.000009 -0.000005 25.042398 0.654461 -6.540982 5.726302 3.044718 -2.696434 3.626241 -0.000003 45.263705 0.000003 -0.000002 0.061988 9.669983 -0.000000 -0.000001 0.000002 -10.300798 -0.000005 0.000013 -11.824969 13.668327 12.739552 -0.000001 0.000006 -44.955593 0.000000 5.961245 0.000000 -0.000000 0.000009 -44.349697 6.799325 -8.801387 0.187531 0.000000 0.000001 -4.355741 0.000000 -0.000000 -0.000001 0.000001 -17.058399 -0.000003 0.000001 -17.006920 -0.000001 10.300800 -0.000002 0.000014 3.098334 17.470905 1.124299 -0.000000 0.000007 -44.955601 -0.000000 -1.386538 0.000000 0.000001 0.000007 -44.349693 0.688077 -4.985132 -1.111168 0.000001 -0.000000 -4.355742 -0.000001 0.000000 0.000000 0.000002 -17.058403 -0.000002 0.000000 -8.934617 -0.000000 
3.667170 2.107142 96.959991 3.207861 -11.688983 -2.755365 -0.000000 2.282072 11.002606 0.044933 6.189168 2.437643 -0.000000 -0.000002 10.969308 0.212013 4.976403 -0.022345 0.000000 -0.000002 10.969299 5.543770 5.088901 1.466558 0.000001 -0.000003 10.969275 1.497564 2.990684 2.240766 -0.000001 -1.410342 14.103396 -3.474242 2.022259 -9.377608 0.000001 -0.000002 4.782912 -8.339641 0.432162 2.438311 0.000002 -0.000001 4.782935 -0.439512 -11.729157 1.406550 0.000008 -5.270921 10.073898 -25.035555 0.000017 -78.696019 -0.000008 -0.000002 20.722305 81.000006 -0.000008 -0.000008 -0.000005 -0.000013 28.841993 -27.711705 26.835578 13.339863 -0.000011 -0.000002 25.042383 -3.584999 -10.121715 -19.620605 -3.044737 -2.696434 3.626227 -0.000003 45.263705 -0.000004 -0.000015 0.061980 9.669983 0.000001 -0.000001 0.000000 0.000002 -5.270921 10.073897 15.290377 0.000018 96.047992 0.000026 0.000000 20.722311 17.127389 29.202125 62.090231 -0.000002 -0.000009 28.842010 18.715823 33.776938 -10.666897 0.000009 -0.000004 25.042421 0.639797 -6.562946 5.580293 3.044722 -2.696450 3.626241 -0.000003 45.263698 0.000004 0.000002 0.061986 9.669983 0.000000 -0.000001 0.000002 -10.300799 0.000000 0.000012 -11.948600 13.661971 12.807239 -0.000000 0.000008 -44.955589 -0.000001 5.973816 -0.000000 0.000002 0.000008 -44.349705 6.704416 -8.814297 0.187749 0.000000 0.000002 -4.355742 -0.000000 0.000000 -0.000000 -0.000001 -17.058397 -0.000003 0.000001 -17.003624 0.000000 10.300801 0.000001 0.000021 3.012406 17.414011 1.185073 0.000001 0.000008 -44.955597 -0.000000 -1.352937 -0.000000 -0.000001 0.000006 -44.349693 0.564091 -4.974296 -1.114456 0.000000 0.000001 -4.355741 -0.000001 0.000000 0.000000 -0.000002 -17.058403 -0.000002 0.000001 -8.934605 -0.000000 
3.701190 2.105623 96.952797 3.286673 -11.703416 -2.805029 0.000000 2.282077 11.002600 0.043572 6.171601 2.443262 -0.000000 -0.000003 10.969305 0.214795 4.961553 -0.011485 0.000000 -0.000002 10.969305 5.537725 5.097046 1.462103 0.000000 -0.000004 10.969287 1.493178 3.019175 2.202865 -0.000001 -1.410335 14.103380 -3.474047 1.862958 -9.263419 -0.000000 0.000002 4.782914 -8.341644 0.326940 2.396671 -0.000000 0.000000 4.782892 -0.440681 -11.785059 1.394887 -0.000008 -5.270913 10.073883 -25.035553 0.000014 -78.696026 -0.000018 -0.000004 20.722305 76.500004 -0.000008 -0.000010 0.000002 -0.000013 28.841993 -27.711712 26.835581 13.339863 -0.000001 -0.000001 25.042370 -3.506719 -10.125341 -19.217656 -3.044730 -2.696450 3.626227 0.000003 45.263701 -0.000003 -0.000002 0.061978 9.669983 0.000002 -0.000002 -0.000003 0.000006 -5.270912 10.073886 15.279065 0.000008 96.122468 0.000005 -0.000004 20.722311 17.071387 29.149168 62.027666 0.000000 -0.000010 28.842028 18.726009 33.733270 -10.661112 0.000007 -0.000001 25.042412 0.649469 -6.556279 5.669841 3.044719 -2.696450 3.626226 -0.000006 45.263705 0.000000 -0.000003 0.061988 9.669998 -0.000001 -0.000001 -0.000001 -10.300799 0.000004 0.000015 -12.009243 13.659937 12.893689 0.000001 0.000007 -44.955597 -0.000000 6.016244 0.000001 0.000001 0.000007 -44.349697 6.657421 -8.857330 0.185336 -0.000001 0.000000 -4.355740 -0.000000 0.000000 0.000000 -0.000001 -17.058399 -0.000002 0.000001 -17.003126 0.000001 10.300800 0.000007 0.000003 2.873431 17.382584 1.285931 -0.000000 0.000008 -44.955589 0.000001 -1.274717 0.000000 -0.000001 0.000007 -44.349701 0.596245 -5.004740 -1.140696 0.000001 0.000002 -4.355741 0.000001 -0.000000 0.000000 -0.000002 -17.058403 -0.000002 0.000002 -8.927826 -0.000000 
3.727291 2.092294 96.945099 3.298751 -11.738824 -2.840428 -0.000001 2.282069 11.002604 0.041581 6.158003 2.448420 0.000000 -0.000001 10.969301 0.215725 4.948475 -0.002975 0.000000 -0.000002 10.969299 5.516489 5.108198 1.459446 -0.000001 -0.000003 10.969315 1.481651 3.047843 2.172957 -0.000002 -1.410334 14.103386 -3.453797 1.693487 -9.125241 -0.000001 0.000001 4.782920 -8.313833 0.264928 2.329620 0.000000 -0.000004 4.782911 -0.443399 -11.813704 1.353265 -0.000008 -5.270913 10.073882 -25.035555 0.000014 -78.696019 -0.000021 -0.000005 20.722305 72.000002 -0.000008 -0.000010 0.000005 -0.000005 28.841993 -27.711705 26.835581 13.339862 0.000011 -0.000004 25.042387 -3.583224 -10.333351 -19.244205 -3.044733 -2.696450 3.626211 0.000000 45.263701 -0.000002 -0.000006 0.061974 9.669968 0.000005 0.000001 0.000000 0.000010 -5.270918 10.073875 15.275172 0.000013 96.191801 0.000016 -0.000003 20.722307 17.043364 29.111154 61.942364 0.000002 -0.000010 28.842026 18.728234 33.645758 -10.638590 0.000001 -0.000006 25.042419 0.662783 -6.544705 5.795395 3.044716 -2.696450 3.626227 0.000003 45.263705 0.000001 -0.000005 0.061990 9.669983 0.000002 -0.000000 0.000002 -10.300800 0.000001 0.000017 -12.024090 13.674736 12.954282 -0.000002 0.000005 -44.955605 -0.000001 6.057545 0.000000 -0.000001 0.000007 -44.349697 6.647385 -8.903077 0.168331 -0.000002 0.000000 -4.355741 -0.000000 -0.000000 -0.000000 -0.000001 -17.058399 -0.000003 0.000001 -16.997124 -0.000000 10.300800 0.000001 0.000018 2.703769 17.379123 1.379634 0.000001 0.000007 -44.955585 0.000000 -1.187736 0.000000 -0.000000 0.000006 -44.349701 0.721891 -5.059573 -1.162263 0.000000 0.000001 -4.355742 -0.000000 -0.000000 0.000000 -0.000001 -17.058403 -0.000001 0.000001 -8.919915 -0.000000 
3.747180 2.078825 96.937897 3.291535 -11.781406 -2.863330 0.000000 2.282072 11.002604 0.042848 6.129455 2.452982 -0.000000 -0.000003 10.969313 0.216216 4.942776 0.008002 -0.000000 -0.000002 10.969306 5.478706 5.127980 1.449604 -0.000001 -0.000000 10.969302 1.461335 3.062806 2.114253 0.000000 -1.410350 14.103373 -3.405175 1.563971 -9.058066 0.000003 0.000000 4.782931 -8.248901 0.223351 2.356126 0.000000 -0.000001 4.782898 -0.434794 -11.818047 1.381743 -0.000008 -5.270928 10.073881 -25.035556 0.000016 -78.696019 0.000002 -0.000003 20.722305 67.500000 -0.000007 -0.000009 -0.000018 -0.000005 28.841993 -27.711708 26.835583 13.339861 -0.000008 -0.000017 25.042381 -3.627469 -10.503929 -19.175157 -3.044708 -2.696450 3.626227 -0.000001 45.263701 0.000001 -0.000000 0.061990 9.669968 -0.000001 0.000000 0.000000 0.000005 -5.270927 10.073879 15.247696 0.000004 96.235672 -0.000001 -0.000004 20.722307 17.075808 29.131334 61.887026 0.000004 -0.000012 28.842024 18.783935 33.571548 -10.651543 0.000005 -0.000003 25.042416 0.660511 -6.545573 5.774910 3.044719 -2.696450 3.626211 -0.000003 45.263705 0.000000 0.000002 0.061983 9.669998 -0.000002 -0.000000 0.000000 -10.300798 0.000000 0.000022 -12.009404 13.710930 12.996913 -0.000001 0.000005 -44.955589 -0.000001 6.083726 -0.000000 -0.000002 0.000009 -44.349701 6.630109 -8.947877 0.133331 -0.000001 0.000000 -4.355741 -0.000000 -0.000000 0.000000 -0.000003 -17.058401 -0.000003 0.000001 -16.983122 0.000000 10.300802 0.000001 0.000001 2.628492 17.410454 1.431176 -0.000000 0.000008 -44.955589 0.000000 -1.144457 0.000000 0.000001 0.000007 -44.349701 0.782126 -5.104042 -1.165943 0.000002 0.000001 -4.355739 0.000001 -0.000000 -0.000000 0.000000 -17.058401 -0.000003 0.000000 -8.931248 -0.000000 
3.758070 2.072391 96.934090 3.233912 -11.775136 -2.865804 -0.000001 2.282069 11.002597 0.038587 6.081309 2.459277 -0.000000 -0.000003 10.969295 0.217076 4.920676 0.015589 -0.000000 -0.000000 10.969294 5.443457 5.113224 1.438116 0.000001 -0.000000 10.969279 1.441222 3.083475 2.012393 0.000001 -1.410352 14.103386 -3.347596 1.508560 -8.956137 0.000001 -0.000001 4.782890 -8.173383 0.094095 2.400004 0.000001 0.000000 4.782931 -0.422143 -11.897619 1.435050 0.000008 -5.270928 10.073901 -25.035553 0.000016 -78.696019 -0.000006 -0.000005 20.722305 62.999998 -0.000005 -0.000011 0.000001 -0.000021 28.841993 -27.711705 26.835581 13.339862 0.000017 -0.000010 25.042374 -3.593725 -10.557696 -18.920454 -3.044729 -2.696450 3.626226 0.000003 45.263705 -0.000003 -0.000003 0.061977 9.669983 0.000002 0.000000 -0.000004 0.000008 -5.270928 10.073895 15.248595 0.000012 96.326226 0.000024 -0.000003 20.722311 17.133386 29.144899 61.799388 -0.000000 -0.000011 28.841982 18.718538 33.560893 -10.609673 0.000006 -0.000002 25.042421 0.676673 -6.569368 5.894007 3.044718 -2.696450 3.626241 0.000003 45.263698 0.000003 -0.000003 0.061988 9.669983 0.000000 0.000002 0.000001 -10.300799 -0.000000 0.000018 -11.975611 13.692066 12.998177 -0.000002 0.000005 -44.955605 -0.000000 6.101486 -0.000000 0.000000 0.000009 -44.349705 6.647489 -8.963267 0.126236 -0.000000 -0.000000 -4.355740 -0.000000 -0.000000 -0.000000 0.000002 -17.058401 -0.000003 0.000001 -16.976623 0.000000 10.300799 -0.000003 0.000022 2.647923 17.414892 1.438964 0.000001 0.000008 -44.955601 0.000000 -1.138327 -0.000000 -0.000001 0.000007 -44.349701 0.813090 -5.123930 -1.177154 0.000000 -0.000000 -4.355742 -0.000000 0.000000 0.000000 0.000000 -17.058403 -0.000002 0.000001 -8.960477 -0.000000 
